<svg width="49" height="49" viewBox="0 0 49 49" fill="none" xmlns="http://www.w3.org/2000/svg">
<rect x="0.309937" y="0.609863" width="48" height="48" rx="24" fill="#FFF1F0"/>
<g clip-path="url(#clip0_2001_1299)">
<path d="M29.5599 19.3599L19.0599 29.8599" stroke="#FF685F" stroke-width="1.5" stroke-linecap="round" stroke-linejoin="round"/>
<path d="M20.1849 22.3599C21.2205 22.3599 22.0599 21.5204 22.0599 20.4849C22.0599 19.4493 21.2205 18.6099 20.1849 18.6099C19.1494 18.6099 18.3099 19.4493 18.3099 20.4849C18.3099 21.5204 19.1494 22.3599 20.1849 22.3599Z" stroke="#FF685F" stroke-width="1.5" stroke-linecap="round" stroke-linejoin="round"/>
<path d="M28.4349 30.6099C29.4705 30.6099 30.3099 29.7704 30.3099 28.7349C30.3099 27.6993 29.4705 26.8599 28.4349 26.8599C27.3994 26.8599 26.5599 27.6993 26.5599 28.7349C26.5599 29.7704 27.3994 30.6099 28.4349 30.6099Z" stroke="#FF685F" stroke-width="1.5" stroke-linecap="round" stroke-linejoin="round"/>
</g>
<defs>
<clipPath id="clip0_2001_1299">
<rect width="18" height="18" fill="white" transform="translate(15.3099 15.6099)"/>
</clipPath>
</defs>
</svg>
