<svg width="49" height="49" viewBox="0 0 49 49" fill="none" xmlns="http://www.w3.org/2000/svg">
<rect x="0.659912" y="0.609863" width="48" height="48" rx="24" fill="#FFF1F0"/>
<g clip-path="url(#clip0_2001_1278)">
<path d="M32.9099 18.6099V23.1099H28.4099" stroke="#FF685F" stroke-width="1.5" stroke-linecap="round" stroke-linejoin="round"/>
<path d="M16.4099 30.6099V26.1099H20.9099" stroke="#FF685F" stroke-width="1.5" stroke-linecap="round" stroke-linejoin="round"/>
<path d="M18.2924 22.36C18.6728 21.2851 19.3193 20.3241 20.1715 19.5666C21.0238 18.8091 22.054 18.2799 23.1661 18.0282C24.2782 17.7766 25.436 17.8108 26.5313 18.1276C27.6266 18.4444 28.6239 19.0336 29.4299 19.84L32.9099 23.11M16.4099 26.11L19.8899 29.38C20.696 30.1865 21.6932 30.7756 22.7885 31.0925C23.8838 31.4093 25.0416 31.4435 26.1537 31.1918C27.2658 30.9402 28.2961 30.411 29.1483 29.6535C30.0006 28.896 30.647 27.935 31.0274 26.86" stroke="#FF685F" stroke-width="1.5" stroke-linecap="round" stroke-linejoin="round"/>
</g>
<defs>
<clipPath id="clip0_2001_1278">
<rect width="18" height="18" fill="white" transform="translate(15.6599 15.6099)"/>
</clipPath>
</defs>
</svg>
